<svg width="240" height="240" viewBox="0 0 240 240" fill="none" xmlns="http://www.w3.org/2000/svg">
<g filter="url(#filter0_ddd_1_385)">
<path d="M40 56C40 44.9543 48.9543 36 60 36H180C191.046 36 200 44.9543 200 56V176C200 187.046 191.046 196 180 196H60C48.9543 196 40 187.046 40 176V56Z" fill="white"/>
<path d="M168 80C168 86.6274 162.627 92 156 92C149.373 92 144 86.6274 144 80C144 73.3726 149.373 68 156 68C162.627 68 168 73.3726 168 80Z" fill="#252525"/>
<path d="M96 152C96 158.627 90.6274 164 84 164C77.3726 164 72 158.627 72 152C72 145.373 77.3726 140 84 140C90.6274 140 96 145.373 96 152Z" fill="#252525"/>
</g>
<defs>
<filter id="filter0_ddd_1_385" x="0" y="0" width="240" height="240" filterUnits="userSpaceOnUse" color-interpolation-filters="sRGB">
<feFlood flood-opacity="0" result="BackgroundImageFix"/>
<feColorMatrix in="SourceAlpha" type="matrix" values="0 0 0 0 0 0 0 0 0 0 0 0 0 0 0 0 0 0 127 0" result="hardAlpha"/>
<feOffset dy="4"/>
<feGaussianBlur stdDeviation="20"/>
<feComposite in2="hardAlpha" operator="out"/>
<feColorMatrix type="matrix" values="0 0 0 0 0.933333 0 0 0 0 0.933333 0 0 0 0 0.933333 0 0 0 1 0"/>
<feBlend mode="normal" in2="BackgroundImageFix" result="effect1_dropShadow_1_385"/>
<feColorMatrix in="SourceAlpha" type="matrix" values="0 0 0 0 0 0 0 0 0 0 0 0 0 0 0 0 0 0 127 0" result="hardAlpha"/>
<feOffset dy="4"/>
<feGaussianBlur stdDeviation="4"/>
<feComposite in2="hardAlpha" operator="out"/>
<feColorMatrix type="matrix" values="0 0 0 0 0.258824 0 0 0 0 0.278431 0 0 0 0 0.298039 0 0 0 0.05 0"/>
<feBlend mode="normal" in2="effect1_dropShadow_1_385" result="effect2_dropShadow_1_385"/>
<feColorMatrix in="SourceAlpha" type="matrix" values="0 0 0 0 0 0 0 0 0 0 0 0 0 0 0 0 0 0 127 0" result="hardAlpha"/>
<feOffset/>
<feGaussianBlur stdDeviation="0.25"/>
<feComposite in2="hardAlpha" operator="out"/>
<feColorMatrix type="matrix" values="0 0 0 0 0.258824 0 0 0 0 0.278431 0 0 0 0 0.298039 0 0 0 0.32 0"/>
<feBlend mode="normal" in2="effect2_dropShadow_1_385" result="effect3_dropShadow_1_385"/>
<feBlend mode="normal" in="SourceGraphic" in2="effect3_dropShadow_1_385" result="shape"/>
</filter>
</defs>
</svg>
