<svg width="160" height="160" viewBox="0 0 160 160" fill="none" xmlns="http://www.w3.org/2000/svg">
<path d="M0 20C0 8.95431 8.95431 0 20 0H140C151.046 0 160 8.95431 160 20V140C160 151.046 151.046 160 140 160H20C8.95431 160 0 151.046 0 140V20Z" fill="white"/>
<path d="M56 44C56 50.6274 50.6274 56 44 56C37.3726 56 32 50.6274 32 44C32 37.3726 37.3726 32 44 32C50.6274 32 56 37.3726 56 44Z" fill="#252525"/>
<path d="M128 116C128 122.627 122.627 128 116 128C109.373 128 104 122.627 104 116C104 109.373 109.373 104 116 104C122.627 104 128 109.373 128 116Z" fill="#252525"/>
<path d="M128 44C128 50.6274 122.627 56 116 56C109.373 56 104 50.6274 104 44C104 37.3726 109.373 32 116 32C122.627 32 128 37.3726 128 44Z" fill="#252525"/>
<path d="M56 80C56 86.6274 50.6274 92 44 92C37.3726 92 32 86.6274 32 80C32 73.3726 37.3726 68 44 68C50.6274 68 56 73.3726 56 80Z" fill="#252525"/>
<path d="M128 80C128 86.6274 122.627 92 116 92C109.373 92 104 86.6274 104 80C104 73.3726 109.373 68 116 68C122.627 68 128 73.3726 128 80Z" fill="#252525"/>
<path d="M56 116C56 122.627 50.6274 128 44 128C37.3726 128 32 122.627 32 116C32 109.373 37.3726 104 44 104C50.6274 104 56 109.373 56 116Z" fill="#252525"/>
</svg>
