<svg width="240" height="240" viewBox="0 0 240 240" fill="none" xmlns="http://www.w3.org/2000/svg">
<g filter="url(#filter0_ddd_1_386)">
<path d="M40 56C40 44.9543 48.9543 36 60 36H180C191.046 36 200 44.9543 200 56V176C200 187.046 191.046 196 180 196H60C48.9543 196 40 187.046 40 176V56Z" fill="white"/>
<path d="M140 116C140 127.046 131.046 136 120 136C108.954 136 100 127.046 100 116C100 104.954 108.954 96 120 96C131.046 96 140 104.954 140 116Z" fill="#FF3B30"/>
</g>
<defs>
<filter id="filter0_ddd_1_386" x="0" y="0" width="240" height="240" filterUnits="userSpaceOnUse" color-interpolation-filters="sRGB">
<feFlood flood-opacity="0" result="BackgroundImageFix"/>
<feColorMatrix in="SourceAlpha" type="matrix" values="0 0 0 0 0 0 0 0 0 0 0 0 0 0 0 0 0 0 127 0" result="hardAlpha"/>
<feOffset dy="4"/>
<feGaussianBlur stdDeviation="20"/>
<feComposite in2="hardAlpha" operator="out"/>
<feColorMatrix type="matrix" values="0 0 0 0 0.933333 0 0 0 0 0.933333 0 0 0 0 0.933333 0 0 0 1 0"/>
<feBlend mode="normal" in2="BackgroundImageFix" result="effect1_dropShadow_1_386"/>
<feColorMatrix in="SourceAlpha" type="matrix" values="0 0 0 0 0 0 0 0 0 0 0 0 0 0 0 0 0 0 127 0" result="hardAlpha"/>
<feOffset dy="4"/>
<feGaussianBlur stdDeviation="4"/>
<feComposite in2="hardAlpha" operator="out"/>
<feColorMatrix type="matrix" values="0 0 0 0 0.258824 0 0 0 0 0.278431 0 0 0 0 0.298039 0 0 0 0.05 0"/>
<feBlend mode="normal" in2="effect1_dropShadow_1_386" result="effect2_dropShadow_1_386"/>
<feColorMatrix in="SourceAlpha" type="matrix" values="0 0 0 0 0 0 0 0 0 0 0 0 0 0 0 0 0 0 127 0" result="hardAlpha"/>
<feOffset/>
<feGaussianBlur stdDeviation="0.25"/>
<feComposite in2="hardAlpha" operator="out"/>
<feColorMatrix type="matrix" values="0 0 0 0 0.258824 0 0 0 0 0.278431 0 0 0 0 0.298039 0 0 0 0.32 0"/>
<feBlend mode="normal" in2="effect2_dropShadow_1_386" result="effect3_dropShadow_1_386"/>
<feBlend mode="normal" in="SourceGraphic" in2="effect3_dropShadow_1_386" result="shape"/>
</filter>
</defs>
</svg>
