<svg width="30" height="30" viewBox="0 0 30 30" fill="none" xmlns="http://www.w3.org/2000/svg">
<path d="M0 3.75C0 1.67893 1.67893 0 3.75 0H8.25C10.3211 0 12 1.67893 12 3.75V8.25C12 10.3211 10.3211 12 8.25 12H3.75C1.67893 12 0 10.3211 0 8.25V3.75Z" fill="#6E6E73"/>
<path d="M0 3.75C0 1.67893 1.67893 0 3.75 0H8.25C10.3211 0 12 1.67893 12 3.75V8.25C12 10.3211 10.3211 12 8.25 12H3.75C1.67893 12 0 10.3211 0 8.25V3.75Z" fill="#6E6E73"/>
<path d="M18 3.75C18 1.67893 19.6789 0 21.75 0H26.25C28.3211 0 30 1.67893 30 3.75V8.25C30 10.3211 28.3211 12 26.25 12H21.75C19.6789 12 18 10.3211 18 8.25V3.75Z" fill="#6E6E73"/>
<path d="M18 21.75C18 19.6789 19.6789 18 21.75 18H26.25C28.3211 18 30 19.6789 30 21.75V26.25C30 28.3211 28.3211 30 26.25 30H21.75C19.6789 30 18 28.3211 18 26.25V21.75Z" fill="#6E6E73"/>
<path d="M0 21.75C0 19.6789 1.67893 18 3.75 18H8.25C10.3211 18 12 19.6789 12 21.75V26.25C12 28.3211 10.3211 30 8.25 30H3.75C1.67893 30 0 28.3211 0 26.25V21.75Z" fill="#6E6E73"/>
</svg>
