<svg width="30" height="30" viewBox="0 0 30 30" fill="none" xmlns="http://www.w3.org/2000/svg">
<path d="M0 3.75C0 1.67893 1.67893 0 3.75 0H26.25C28.3211 0 30 1.67893 30 3.75V26.25C30 28.3211 28.3211 30 26.25 30H3.75C1.67893 30 0 28.3211 0 26.25V3.75Z" fill="#6E6E73"/>
<path d="M12.7258 17.9546C12.7258 15.3618 13.3411 14.5708 14.5276 13.8018C15.5164 13.1646 16.2634 12.6152 16.2634 11.7144C16.2634 10.9014 15.6042 10.3521 14.7913 10.3521C13.9343 10.3521 13.1873 10.9893 13.1653 11.9341H9.2981C9.34204 8.55029 11.825 7.12207 14.8132 7.12207C18.1091 7.12207 20.5261 8.59424 20.5261 11.4946C20.5261 13.3623 19.5154 14.4829 17.9993 15.3618C16.8567 16.043 16.2854 16.6802 16.2854 17.9546V18.3062H12.7258V17.9546ZM14.5496 23.4917C13.363 23.4917 12.3962 22.5469 12.4182 21.3604C12.3962 20.1958 13.363 19.251 14.5496 19.251C15.6702 19.251 16.6809 20.1958 16.6809 21.3604C16.6809 22.5469 15.6702 23.4917 14.5496 23.4917Z" fill="white"/>
</svg>
