<svg width="30" height="30" viewBox="0 0 30 30" fill="none" xmlns="http://www.w3.org/2000/svg">
<path d="M0 6.75C0 5.09315 1.34315 3.75 3 3.75H6C7.65685 3.75 9 5.09315 9 6.75V9.75C9 11.4069 7.65685 12.75 6 12.75H3C1.34315 12.75 0 11.4069 0 9.75V6.75Z" fill="#6E6E73"/>
<path d="M5.25 19.5C5.25 17.8431 6.59315 16.5 8.25 16.5H11.25C12.9069 16.5 14.25 17.8431 14.25 19.5V22.5C14.25 24.1569 12.9069 25.5 11.25 25.5H8.25C6.59315 25.5 5.25 24.1569 5.25 22.5V19.5Z" fill="#6E6E73"/>
<path d="M15.75 19.5C15.75 17.8431 17.0931 16.5 18.75 16.5H21.75C23.4069 16.5 24.75 17.8431 24.75 19.5V22.5C24.75 24.1569 23.4069 25.5 21.75 25.5H18.75C17.0931 25.5 15.75 24.1569 15.75 22.5V19.5Z" fill="#6E6E73"/>
<path d="M21 6.75C21 5.09315 22.3431 3.75 24 3.75H27C28.6569 3.75 30 5.09315 30 6.75V9.75C30 11.4069 28.6569 12.75 27 12.75H24C22.3431 12.75 21 11.4069 21 9.75V6.75Z" fill="#6E6E73"/>
<path d="M10.5 6.75C10.5 5.09315 11.8431 3.75 13.5 3.75H16.5C18.1569 3.75 19.5 5.09315 19.5 6.75V9.75C19.5 11.4069 18.1569 12.75 16.5 12.75H13.5C11.8431 12.75 10.5 11.4069 10.5 9.75V6.75Z" fill="#6E6E73"/>
</svg>
