<svg width="30" height="30" viewBox="0 0 30 30" fill="none" xmlns="http://www.w3.org/2000/svg">
<path d="M0 3C0 1.34315 1.34315 0 3 0H6C7.65685 0 9 1.34315 9 3V6C9 7.65685 7.65685 9 6 9H3C1.34315 9 0 7.65685 0 6V3Z" fill="#6E6E73"/>
<path d="M16.5 13.5C16.5 11.8431 17.8431 10.5 19.5 10.5H22.5C24.1569 10.5 25.5 11.8431 25.5 13.5V16.5C25.5 18.1569 24.1569 19.5 22.5 19.5H19.5C17.8431 19.5 16.5 18.1569 16.5 16.5V13.5Z" fill="#6E6E73"/>
<path d="M10.5 24C10.5 22.3431 11.8431 21 13.5 21H16.5C18.1569 21 19.5 22.3431 19.5 24V27C19.5 28.6569 18.1569 30 16.5 30H13.5C11.8431 30 10.5 28.6569 10.5 27V24Z" fill="#6E6E73"/>
<path d="M21 3C21 1.34315 22.3431 0 24 0H27C28.6569 0 30 1.34315 30 3V6C30 7.65685 28.6569 9 27 9H24C22.3431 9 21 7.65685 21 6V3Z" fill="#6E6E73"/>
<path d="M4.5 13.5C4.5 11.8431 5.84315 10.5 7.5 10.5H10.5C12.1569 10.5 13.5 11.8431 13.5 13.5V16.5C13.5 18.1569 12.1569 19.5 10.5 19.5H7.5C5.84315 19.5 4.5 18.1569 4.5 16.5V13.5Z" fill="#6E6E73"/>
</svg>
