<svg width="30" height="30" viewBox="0 0 30 30" fill="none" xmlns="http://www.w3.org/2000/svg">
<path d="M0 3C0 1.34315 1.34315 0 3 0H6C7.65685 0 9 1.34315 9 3V6C9 7.65685 7.65685 9 6 9H3C1.34315 9 0 7.65685 0 6V3Z" fill="#6E6E73"/>
<path d="M21 24C21 22.3431 22.3431 21 24 21H27C28.6569 21 30 22.3431 30 24V27C30 28.6569 28.6569 30 27 30H24C22.3431 30 21 28.6569 21 27V24Z" fill="#6E6E73"/>
<path d="M6.75 9.75C6.75 8.09315 8.09315 6.75 9.75 6.75H12.75C14.4069 6.75 15.75 8.09315 15.75 9.75V12.75C15.75 14.4069 14.4069 15.75 12.75 15.75H9.75C8.09315 15.75 6.75 14.4069 6.75 12.75V9.75Z" fill="#6E6E73"/>
<path d="M14.25 17.25C14.25 15.5931 15.5931 14.25 17.25 14.25H20.25C21.9069 14.25 23.25 15.5931 23.25 17.25V20.25C23.25 21.9069 21.9069 23.25 20.25 23.25H17.25C15.5931 23.25 14.25 21.9069 14.25 20.25V17.25Z" fill="#6E6E73"/>
</svg>
