<svg width="275" height="117" viewBox="0 0 275 117" fill="none" xmlns="http://www.w3.org/2000/svg">
<rect width="275" height="117" rx="20" fill="#6E6E73"/>
<path d="M84.5938 33.4064C81.875 30.6876 78.1438 29.0001 74 29.0001C65.7125 29.0001 59.0188 35.7126 59.0188 44.0001C59.0188 52.2876 65.7125 59.0001 74 59.0001C80.9938 59.0001 86.825 54.2189 88.4938 47.7501H84.5938C83.0563 52.1189 78.8938 55.2501 74 55.2501C67.7938 55.2501 62.75 50.2064 62.75 44.0001C62.75 37.7939 67.7938 32.7501 74 32.7501C77.1125 32.7501 79.8875 34.0439 81.9125 36.0876L75.875 42.1251H89V29.0001L84.5938 33.4064Z" fill="white"/>
<path d="M103.477 58V29.7188H115.508C121.836 29.7188 125.977 33.3125 125.977 39.2891C125.977 43.1953 124.18 45.9688 121.133 47.4141L126.914 58H118.828L113.828 48.5859H110.898V58H103.477ZM110.898 42.7656H113.789C116.602 42.7656 118.203 41.75 118.203 39.2891C118.203 36.7891 116.602 35.6562 113.789 35.6562H110.898V42.7656ZM139.062 58.3906C132.305 58.3906 128.164 54.2891 128.164 47.4531C128.164 40.8906 132.344 36.5156 138.906 36.5156C145.195 36.5156 149.375 40.5781 149.375 47.375V49.1328H135.469V49.4062C135.469 51.5938 136.875 53.1562 139.219 53.1562C140.82 53.1562 142.109 52.4531 142.578 51.2422H149.336C148.594 55.6172 144.844 58.3906 139.062 58.3906ZM135.469 44.9922H142.539C142.5 43.0781 141.016 41.75 139.062 41.75C137.09 41.75 135.527 43.0977 135.469 44.9922ZM152.539 58V36.7891H159.688V40.7734H159.922C160.703 37.8438 162.461 36.5156 164.766 36.5156C165.43 36.5156 166.094 36.5938 166.68 36.75V43.1172C165.938 42.8438 164.688 42.7266 163.906 42.7266C161.602 42.7266 159.922 44.3672 159.922 46.8281V58H152.539ZM178.672 58.3906C171.836 58.3906 167.734 53.9766 167.734 47.4531C167.734 40.9297 171.836 36.5156 178.672 36.5156C185.508 36.5156 189.57 40.9297 189.57 47.4531C189.57 53.9766 185.508 58.3906 178.672 58.3906ZM178.711 52.9219C180.781 52.9219 182.031 50.7734 182.031 47.4141C182.031 44.0156 180.781 41.9062 178.711 41.9062C176.562 41.9062 175.273 44.0156 175.273 47.4141C175.273 50.7734 176.562 52.9219 178.711 52.9219ZM200.156 29.7188V58H192.773V29.7188H200.156ZM211.484 29.7188V58H204.102V29.7188H211.484Z" fill="white"/>
<path d="M137.5 91.2386C136.216 91.2386 135.122 90.8892 134.219 90.1903C133.315 89.4858 132.625 88.4659 132.148 87.1307C131.67 85.7898 131.432 84.1705 131.432 82.2727C131.432 80.3864 131.67 78.7756 132.148 77.4403C132.631 76.0994 133.324 75.0767 134.227 74.3722C135.136 73.6619 136.227 73.3068 137.5 73.3068C138.773 73.3068 139.861 73.6619 140.764 74.3722C141.673 75.0767 142.366 76.0994 142.844 77.4403C143.327 78.7756 143.568 80.3864 143.568 82.2727C143.568 84.1705 143.33 85.7898 142.852 87.1307C142.375 88.4659 141.685 89.4858 140.781 90.1903C139.878 90.8892 138.784 91.2386 137.5 91.2386ZM137.5 89.3636C138.773 89.3636 139.761 88.75 140.466 87.5227C141.17 86.2955 141.523 84.5455 141.523 82.2727C141.523 80.7614 141.361 79.4744 141.037 78.4119C140.719 77.3494 140.259 76.5398 139.656 75.983C139.06 75.4261 138.341 75.1477 137.5 75.1477C136.239 75.1477 135.253 75.7699 134.543 77.0142C133.832 78.2528 133.477 80.0057 133.477 82.2727C133.477 83.7841 133.636 85.0682 133.955 86.125C134.273 87.1818 134.73 87.9858 135.327 88.5369C135.929 89.0881 136.653 89.3636 137.5 89.3636Z" fill="white"/>
</svg>
