<svg width="275" height="112" viewBox="0 0 275 112" fill="none" xmlns="http://www.w3.org/2000/svg">
<rect width="275" height="112" rx="20" fill="#FF3B30"/>
<path d="M104.094 33.4064C101.375 30.6876 97.6438 29.0001 93.5 29.0001C85.2125 29.0001 78.5188 35.7126 78.5188 44.0001C78.5188 52.2876 85.2125 59.0001 93.5 59.0001C100.494 59.0001 106.325 54.2189 107.994 47.7501H104.094C102.556 52.1189 98.3938 55.2501 93.5 55.2501C87.2938 55.2501 82.25 50.2064 82.25 44.0001C82.25 37.7939 87.2938 32.7501 93.5 32.7501C96.6125 32.7501 99.3875 34.0439 101.413 36.0876L95.375 42.1251H108.5V29.0001L104.094 33.4064Z" fill="white"/>
<path d="M123.262 29.7188H135.293C137.389 29.7188 139.225 30.1029 140.801 30.8711C142.389 31.6393 143.613 32.7461 144.473 34.1914C145.332 35.6237 145.762 37.3229 145.762 39.2891C145.762 41.2161 145.339 42.8698 144.492 44.25C143.659 45.6302 142.467 46.6849 140.918 47.4141L146.699 58H138.613L133.594 48.5859H130.684V58H123.262V29.7188ZM133.574 42.7656C135.02 42.7656 136.113 42.4857 136.855 41.9258C137.611 41.3659 137.988 40.487 137.988 39.2891C137.988 38.0651 137.611 37.1536 136.855 36.5547C136.1 35.9557 135.007 35.6562 133.574 35.6562H130.684V42.7656H133.574ZM158.887 58.3906C156.647 58.3906 154.701 57.9349 153.047 57.0234C151.406 56.112 150.143 54.8359 149.258 53.1953C148.385 51.5417 147.949 49.6276 147.949 47.4531C147.949 45.2786 148.385 43.3711 149.258 41.7305C150.143 40.0768 151.406 38.7943 153.047 37.8828C154.701 36.9714 156.647 36.5156 158.887 36.5156C161.126 36.5156 163.066 36.9714 164.707 37.8828C166.348 38.7943 167.604 40.0768 168.477 41.7305C169.349 43.3711 169.785 45.2786 169.785 47.4531C169.785 49.6276 169.349 51.5417 168.477 53.1953C167.604 54.8359 166.348 56.112 164.707 57.0234C163.066 57.9349 161.126 58.3906 158.887 58.3906ZM158.926 52.9219C159.954 52.9219 160.762 52.4271 161.348 51.4375C161.947 50.4479 162.246 49.1068 162.246 47.4141C162.246 45.7083 161.947 44.3672 161.348 43.3906C160.762 42.401 159.954 41.9062 158.926 41.9062C157.858 41.9062 157.018 42.401 156.406 43.3906C155.794 44.3672 155.488 45.7083 155.488 47.4141C155.488 49.1068 155.794 50.4479 156.406 51.4375C157.018 52.4271 157.858 52.9219 158.926 52.9219ZM180.371 58H172.988V29.7188H180.371V58ZM191.699 58H184.316V29.7188H191.699V58Z" fill="white"/>
<path d="M120.557 87.1953C119.626 87.1953 118.792 87.0391 118.057 86.7266C117.327 86.4141 116.748 85.9746 116.318 85.4082C115.895 84.8418 115.667 84.1875 115.635 83.4453H117.412C117.445 83.8815 117.601 84.2656 117.881 84.5977C118.167 84.9297 118.542 85.1868 119.004 85.3691C119.466 85.5449 119.977 85.6328 120.537 85.6328C121.149 85.6328 121.699 85.5286 122.188 85.3203C122.682 85.1055 123.066 84.8125 123.34 84.4414C123.62 84.0638 123.76 83.6341 123.76 83.1523C123.76 82.6315 123.623 82.1725 123.35 81.7754C123.083 81.3783 122.692 81.069 122.178 80.8477C121.663 80.6263 121.045 80.5156 120.322 80.5156H119.17V78.9727H120.322C120.889 78.9727 121.393 78.8717 121.836 78.6699C122.279 78.4681 122.62 78.1849 122.861 77.8203C123.109 77.4557 123.232 77.0326 123.232 76.5508C123.232 76.0885 123.122 75.6784 122.9 75.3203C122.686 74.9622 122.38 74.6855 121.982 74.4902C121.585 74.2884 121.123 74.1875 120.596 74.1875C120.088 74.1875 119.613 74.2786 119.17 74.4609C118.727 74.6432 118.366 74.9036 118.086 75.2422C117.806 75.5742 117.653 75.9648 117.627 76.4141H115.928C115.96 75.6849 116.188 75.0371 116.611 74.4707C117.035 73.8978 117.598 73.4551 118.301 73.1426C119.004 72.8236 119.775 72.6641 120.615 72.6641C121.488 72.6641 122.249 72.8366 122.9 73.1816C123.558 73.5202 124.062 73.9792 124.414 74.5586C124.766 75.138 124.938 75.7695 124.932 76.4531C124.938 77.2474 124.727 77.9277 124.297 78.4941C123.867 79.0605 123.278 79.4479 122.529 79.6562V79.7539C123.135 79.8516 123.659 80.0566 124.102 80.3691C124.551 80.6751 124.893 81.069 125.127 81.5508C125.368 82.026 125.485 82.5599 125.479 83.1523C125.485 83.9141 125.273 84.6042 124.844 85.2227C124.414 85.8346 123.822 86.3164 123.066 86.668C122.318 87.0195 121.481 87.1953 120.557 87.1953ZM134.736 87H133.057V72.8594H134.736V87ZM141.865 87.2148C140.856 87.2148 139.977 86.9902 139.229 86.541C138.48 86.0918 137.904 85.457 137.5 84.6367C137.103 83.8164 136.904 82.8659 136.904 81.7852C136.904 80.7044 137.103 79.7474 137.5 78.9141C137.904 78.0742 138.467 77.4232 139.189 76.9609C139.919 76.4922 140.758 76.2578 141.709 76.2578C142.51 76.2578 143.255 76.4368 143.945 76.7949C144.635 77.1465 145.195 77.7194 145.625 78.5137C146.061 79.3014 146.279 80.3138 146.279 81.5508V82.2539H138.584C138.61 82.9896 138.763 83.6178 139.043 84.1387C139.323 84.6595 139.704 85.0566 140.186 85.3301C140.674 85.597 141.234 85.7305 141.865 85.7305C142.464 85.7305 142.969 85.6198 143.379 85.3984C143.796 85.1706 144.111 84.8776 144.326 84.5195H146.123C145.954 85.0534 145.671 85.5254 145.273 85.9355C144.883 86.3392 144.395 86.6549 143.809 86.8828C143.229 87.1042 142.581 87.2148 141.865 87.2148ZM144.58 80.8281C144.58 80.2357 144.46 79.7083 144.219 79.2461C143.984 78.7773 143.649 78.4095 143.213 78.1426C142.777 77.8757 142.275 77.7422 141.709 77.7422C141.117 77.7422 140.589 77.8822 140.127 78.1621C139.671 78.4421 139.31 78.8197 139.043 79.2949C138.783 79.7637 138.633 80.2747 138.594 80.8281H144.58ZM153.213 77.8008H150.869V87H149.17V77.8008H147.471V76.3945H149.17V74.9492C149.17 74.3828 149.29 73.8945 149.531 73.4844C149.779 73.0677 150.13 72.7487 150.586 72.5273C151.042 72.306 151.579 72.1953 152.197 72.1953C152.562 72.1953 152.979 72.2344 153.447 72.3125V73.8164C153.135 73.7643 152.842 73.7383 152.568 73.7383C151.982 73.7383 151.553 73.8652 151.279 74.1191C151.006 74.373 150.869 74.7734 150.869 75.3203V76.3945H153.213V77.8008ZM159.834 77.8008H157.607V83.9531C157.607 84.5781 157.731 84.998 157.979 85.2129C158.226 85.4277 158.564 85.5352 158.994 85.5352C159.32 85.5352 159.652 85.5221 159.99 85.4961V87.0586C159.652 87.1107 159.261 87.1367 158.818 87.1367C158.324 87.1367 157.855 87.0358 157.412 86.834C156.969 86.6257 156.608 86.3132 156.328 85.8965C156.048 85.4798 155.908 84.9753 155.908 84.3828V77.8008H154.307V76.3945H155.908V73.8555H157.607V76.3945H159.834V77.8008Z" fill="white"/>
</svg>
