<svg width="275" height="112" viewBox="0 0 275 112" fill="none" xmlns="http://www.w3.org/2000/svg">
<rect width="275" height="112" rx="20" fill="#6E6E73"/>
<path d="M84.5938 33.4063C81.875 30.6876 78.1438 29.0001 74 29.0001C65.7125 29.0001 59.0188 35.7126 59.0188 44.0001C59.0188 52.2876 65.7125 59.0001 74 59.0001C80.9938 59.0001 86.825 54.2188 88.4938 47.7501H84.5938C83.0563 52.1188 78.8938 55.2501 74 55.2501C67.7938 55.2501 62.75 50.2063 62.75 44.0001C62.75 37.7938 67.7938 32.7501 74 32.7501C77.1125 32.7501 79.8875 34.0438 81.9125 36.0876L75.875 42.1251H89V29.0001L84.5938 33.4063Z" fill="white"/>
<path d="M103.477 58V29.7188H115.508C121.836 29.7188 125.977 33.3125 125.977 39.2891C125.977 43.1953 124.18 45.9688 121.133 47.4141L126.914 58H118.828L113.828 48.5859H110.898V58H103.477ZM110.898 42.7656H113.789C116.602 42.7656 118.203 41.75 118.203 39.2891C118.203 36.7891 116.602 35.6562 113.789 35.6562H110.898V42.7656ZM139.062 58.3906C132.305 58.3906 128.164 54.2891 128.164 47.4531C128.164 40.8906 132.344 36.5156 138.906 36.5156C145.195 36.5156 149.375 40.5781 149.375 47.375V49.1328H135.469V49.4062C135.469 51.5938 136.875 53.1562 139.219 53.1562C140.82 53.1562 142.109 52.4531 142.578 51.2422H149.336C148.594 55.6172 144.844 58.3906 139.062 58.3906ZM135.469 44.9922H142.539C142.5 43.0781 141.016 41.75 139.062 41.75C137.09 41.75 135.527 43.0977 135.469 44.9922ZM152.539 58V36.7891H159.688V40.7734H159.922C160.703 37.8438 162.461 36.5156 164.766 36.5156C165.43 36.5156 166.094 36.5938 166.68 36.75V43.1172C165.938 42.8438 164.688 42.7266 163.906 42.7266C161.602 42.7266 159.922 44.3672 159.922 46.8281V58H152.539ZM178.672 58.3906C171.836 58.3906 167.734 53.9766 167.734 47.4531C167.734 40.9297 171.836 36.5156 178.672 36.5156C185.508 36.5156 189.57 40.9297 189.57 47.4531C189.57 53.9766 185.508 58.3906 178.672 58.3906ZM178.711 52.9219C180.781 52.9219 182.031 50.7734 182.031 47.4141C182.031 44.0156 180.781 41.9062 178.711 41.9062C176.562 41.9062 175.273 44.0156 175.273 47.4141C175.273 50.7734 176.562 52.9219 178.711 52.9219ZM200.156 29.7188V58H192.773V29.7188H200.156ZM211.484 29.7188V58H204.102V29.7188H211.484Z" fill="white"/>
<path d="M115.977 87L115.957 85.7109L120.781 80.6328C122.461 78.8555 123.262 77.8984 123.262 76.5898C123.262 75.1445 122.031 74.1875 120.449 74.1875C118.77 74.1875 117.695 75.2617 117.695 76.8438H116.035C116.016 74.3438 117.949 72.6641 120.508 72.6641C123.066 72.6641 124.902 74.3828 124.902 76.5898C124.902 78.1719 124.16 79.4023 121.66 81.9805L118.418 85.3203V85.4375H125.156V87H115.977ZM134.434 72.8594V87H132.754V72.8594H134.434ZM141.562 87.2148C138.496 87.2148 136.602 85.0469 136.602 81.7852C136.602 78.5234 138.516 76.2578 141.406 76.2578C143.633 76.2578 145.977 77.625 145.977 81.5508V82.2539H138.281C138.359 84.5 139.668 85.7305 141.562 85.7305C142.832 85.7305 143.633 85.1836 144.023 84.5195H145.82C145.312 86.1211 143.75 87.2148 141.562 87.2148ZM138.301 80.8281H144.277C144.277 79.0508 143.145 77.7422 141.406 77.7422C139.57 77.7422 138.398 79.1875 138.301 80.8281ZM152.91 76.3945V77.8008H150.566V87H148.867V77.8008H147.168V76.3945H148.867V74.9492C148.867 73.2305 150.02 72.1953 151.895 72.1953C152.305 72.1953 152.793 72.2539 153.145 72.3125V73.8164C152.793 73.7578 152.48 73.7383 152.266 73.7383C151.094 73.7383 150.566 74.2266 150.566 75.3203V76.3945H152.91ZM159.531 76.3945V77.8008H157.305V83.9531C157.305 85.3203 157.969 85.5352 158.691 85.5352C159.004 85.5352 159.434 85.5156 159.688 85.4961V87.0586C159.434 87.0977 159.004 87.1367 158.516 87.1367C157.109 87.1367 155.605 86.2578 155.605 84.3828V77.8008H154.004V76.3945H155.605V73.8555H157.305V76.3945H159.531Z" fill="white"/>
</svg>
