<svg width="30" height="30" viewBox="0 0 30 30" fill="none" xmlns="http://www.w3.org/2000/svg">
<path d="M0 3.75C0 1.67893 1.67893 0 3.75 0H26.25C28.3211 0 30 1.67893 30 3.75V26.25C30 28.3211 28.3211 30 26.25 30H3.75C1.67893 30 0 28.3211 0 26.25V3.75Z" fill="#6E6E73"/>
<path d="M10.5 8.25C10.5 9.49264 9.49264 10.5 8.25 10.5C7.00736 10.5 6 9.49264 6 8.25C6 7.00736 7.00736 6 8.25 6C9.49264 6 10.5 7.00736 10.5 8.25Z" fill="white"/>
<path d="M24 21.75C24 22.9926 22.9926 24 21.75 24C20.5074 24 19.5 22.9926 19.5 21.75C19.5 20.5074 20.5074 19.5 21.75 19.5C22.9926 19.5 24 20.5074 24 21.75Z" fill="white"/>
<path d="M24 8.25C24 9.49264 22.9926 10.5 21.75 10.5C20.5074 10.5 19.5 9.49264 19.5 8.25C19.5 7.00736 20.5074 6 21.75 6C22.9926 6 24 7.00736 24 8.25Z" fill="white"/>
<path d="M10.5 15C10.5 16.2426 9.49264 17.25 8.25 17.25C7.00736 17.25 6 16.2426 6 15C6 13.7574 7.00736 12.75 8.25 12.75C9.49264 12.75 10.5 13.7574 10.5 15Z" fill="white"/>
<path d="M24 15C24 16.2426 22.9926 17.25 21.75 17.25C20.5074 17.25 19.5 16.2426 19.5 15C19.5 13.7574 20.5074 12.75 21.75 12.75C22.9926 12.75 24 13.7574 24 15Z" fill="white"/>
<path d="M10.5 21.75C10.5 22.9926 9.49264 24 8.25 24C7.00736 24 6 22.9926 6 21.75C6 20.5074 7.00736 19.5 8.25 19.5C9.49264 19.5 10.5 20.5074 10.5 21.75Z" fill="white"/>
</svg>
