<svg width="30" height="30" viewBox="0 0 30 30" fill="none" xmlns="http://www.w3.org/2000/svg">
<path d="M0 3.75C0 1.67893 1.67893 0 3.75 0H26.25C28.3211 0 30 1.67893 30 3.75V26.25C30 28.3211 28.3211 30 26.25 30H3.75C1.67893 30 0 28.3211 0 26.25V3.75Z" fill="#6E6E73"/>
<path d="M17.25 15C17.25 16.2426 16.2426 17.25 15 17.25C13.7574 17.25 12.75 16.2426 12.75 15C12.75 13.7574 13.7574 12.75 15 12.75C16.2426 12.75 17.25 13.7574 17.25 15Z" fill="white"/>
<path d="M24 8.25C24 9.49264 22.9926 10.5 21.75 10.5C20.5074 10.5 19.5 9.49264 19.5 8.25C19.5 7.00736 20.5074 6 21.75 6C22.9926 6 24 7.00736 24 8.25Z" fill="white"/>
<path d="M10.5 21.75C10.5 22.9926 9.49264 24 8.25 24C7.00736 24 6 22.9926 6 21.75C6 20.5074 7.00736 19.5 8.25 19.5C9.49264 19.5 10.5 20.5074 10.5 21.75Z" fill="white"/>
</svg>
