<svg width="275" height="112" viewBox="0 0 275 112" fill="none" xmlns="http://www.w3.org/2000/svg">
<rect width="275" height="112" rx="20" fill="#6E6E73"/>
<path d="M84.5938 33.4064C81.875 30.6876 78.1438 29.0001 74 29.0001C65.7125 29.0001 59.0188 35.7126 59.0188 44.0001C59.0188 52.2876 65.7125 59.0001 74 59.0001C80.9938 59.0001 86.825 54.2189 88.4938 47.7501H84.5938C83.0563 52.1189 78.8938 55.2501 74 55.2501C67.7938 55.2501 62.75 50.2064 62.75 44.0001C62.75 37.7939 67.7938 32.7501 74 32.7501C77.1125 32.7501 79.8875 34.0439 81.9125 36.0876L75.875 42.1251H89V29.0001L84.5938 33.4064Z" fill="white"/>
<path d="M103.477 58V29.7188H115.508C121.836 29.7188 125.977 33.3125 125.977 39.2891C125.977 43.1953 124.18 45.9688 121.133 47.4141L126.914 58H118.828L113.828 48.5859H110.898V58H103.477ZM110.898 42.7656H113.789C116.602 42.7656 118.203 41.75 118.203 39.2891C118.203 36.7891 116.602 35.6562 113.789 35.6562H110.898V42.7656ZM139.062 58.3906C132.305 58.3906 128.164 54.2891 128.164 47.4531C128.164 40.8906 132.344 36.5156 138.906 36.5156C145.195 36.5156 149.375 40.5781 149.375 47.375V49.1328H135.469V49.4062C135.469 51.5938 136.875 53.1562 139.219 53.1562C140.82 53.1562 142.109 52.4531 142.578 51.2422H149.336C148.594 55.6172 144.844 58.3906 139.062 58.3906ZM135.469 44.9922H142.539C142.5 43.0781 141.016 41.75 139.062 41.75C137.09 41.75 135.527 43.0977 135.469 44.9922ZM152.539 58V36.7891H159.688V40.7734H159.922C160.703 37.8438 162.461 36.5156 164.766 36.5156C165.43 36.5156 166.094 36.5938 166.68 36.75V43.1172C165.938 42.8438 164.688 42.7266 163.906 42.7266C161.602 42.7266 159.922 44.3672 159.922 46.8281V58H152.539ZM178.672 58.3906C171.836 58.3906 167.734 53.9766 167.734 47.4531C167.734 40.9297 171.836 36.5156 178.672 36.5156C185.508 36.5156 189.57 40.9297 189.57 47.4531C189.57 53.9766 185.508 58.3906 178.672 58.3906ZM178.711 52.9219C180.781 52.9219 182.031 50.7734 182.031 47.4141C182.031 44.0156 180.781 41.9062 178.711 41.9062C176.562 41.9062 175.273 44.0156 175.273 47.4141C175.273 50.7734 176.562 52.9219 178.711 52.9219ZM200.156 29.7188V58H192.773V29.7188H200.156ZM211.484 29.7188V58H204.102V29.7188H211.484Z" fill="white"/>
<path d="M122.461 87H120.684V74.6953H120.605L117.168 76.9805V75.2031L120.684 72.8594H122.461V87ZM132.949 87H131.27V72.8594H132.949V87ZM140.078 87.2148C139.069 87.2148 138.19 86.9902 137.441 86.541C136.693 86.0918 136.117 85.457 135.713 84.6367C135.316 83.8164 135.117 82.8659 135.117 81.7852C135.117 80.7044 135.316 79.7474 135.713 78.9141C136.117 78.0742 136.68 77.4232 137.402 76.9609C138.132 76.4922 138.971 76.2578 139.922 76.2578C140.723 76.2578 141.468 76.4368 142.158 76.7949C142.848 77.1465 143.408 77.7194 143.838 78.5137C144.274 79.3014 144.492 80.3138 144.492 81.5508V82.2539H136.797C136.823 82.9896 136.976 83.6178 137.256 84.1387C137.536 84.6595 137.917 85.0566 138.398 85.3301C138.887 85.597 139.447 85.7305 140.078 85.7305C140.677 85.7305 141.182 85.6198 141.592 85.3984C142.008 85.1706 142.324 84.8776 142.539 84.5195H144.336C144.167 85.0534 143.883 85.5254 143.486 85.9355C143.096 86.3392 142.607 86.6549 142.021 86.8828C141.442 87.1042 140.794 87.2148 140.078 87.2148ZM142.793 80.8281C142.793 80.2357 142.673 79.7083 142.432 79.2461C142.197 78.7773 141.862 78.4095 141.426 78.1426C140.99 77.8757 140.488 77.7422 139.922 77.7422C139.329 77.7422 138.802 77.8822 138.34 78.1621C137.884 78.4421 137.523 78.8197 137.256 79.2949C136.995 79.7637 136.846 80.2747 136.807 80.8281H142.793ZM151.426 77.8008H149.082V87H147.383V77.8008H145.684V76.3945H147.383V74.9492C147.383 74.3828 147.503 73.8945 147.744 73.4844C147.992 73.0677 148.343 72.7487 148.799 72.5273C149.255 72.306 149.792 72.1953 150.41 72.1953C150.775 72.1953 151.191 72.2344 151.66 72.3125V73.8164C151.348 73.7643 151.055 73.7383 150.781 73.7383C150.195 73.7383 149.766 73.8652 149.492 74.1191C149.219 74.373 149.082 74.7734 149.082 75.3203V76.3945H151.426V77.8008ZM158.047 77.8008H155.82V83.9531C155.82 84.5781 155.944 84.998 156.191 85.2129C156.439 85.4277 156.777 85.5352 157.207 85.5352C157.533 85.5352 157.865 85.5221 158.203 85.4961V87.0586C157.865 87.1107 157.474 87.1367 157.031 87.1367C156.536 87.1367 156.068 87.0358 155.625 86.834C155.182 86.6257 154.821 86.3132 154.541 85.8965C154.261 85.4798 154.121 84.9753 154.121 84.3828V77.8008H152.52V76.3945H154.121V73.8555H155.82V76.3945H158.047V77.8008Z" fill="white"/>
</svg>
